<?xml version="1.0" encoding="utf-8"?>
<!-- Generator: Adobe Illustrator 24.0.2, SVG Export Plug-In . SVG Version: 6.00 Build 0)  -->
<svg version="1.1" id="bold" xmlns="http://www.w3.org/2000/svg" xmlns:xlink="http://www.w3.org/1999/xlink" x="0px" y="0px"
	 viewBox="0 0 512 512" style="enable-background:new 0 0 512 512;" xml:space="preserve">
<style type="text/css">
	.st0{fill:#FFFFFF;}
</style>
<path class="st0" d="M501.5,0.1c-99.9-1.8-213.9,50.5-286.1,131.5c-68.9,1.3-136.1,29.6-185.5,79c-2.9,2.8-3.9,7.1-2.6,10.9
	c1.3,3.9,4.6,6.7,8.6,7.2l82.2,11.8l-10.2,11.4c-3.8,4.2-3.6,10.6,0.4,14.7l137.1,137.1c2.1,2.1,4.8,3.1,7.6,3.1
	c2.5,0,5.1-0.9,7.1-2.7l11.4-10.2l11.8,82.2c0.6,4,3.7,7,7.6,8.2c1,0.3,2,0.5,3.1,0.5c3,0,6.1-1.3,8.3-3.4
	c48.7-48.7,77-115.9,78.3-184.8c81.1-72.3,133.8-186.2,131.5-286.1C511.8,4.8,507.2,0.2,501.5,0.1L501.5,0.1z M403.2,184.2
	c-10.4,10.4-24,15.6-37.7,15.6c-13.7,0-27.3-5.2-37.7-15.6c-20.8-20.8-20.8-54.6,0-75.4c20.8-20.8,54.6-20.8,75.4,0
	C424,129.6,424,163.4,403.2,184.2z"/>
<path class="st0" d="M58.1,360.6c-22.8,22.8-54.2,126-57.7,137.6c-1.1,3.8-0.1,7.8,2.7,10.6c2,2,4.8,3.1,7.6,3.1c1,0,2-0.1,3.1-0.4
	c11.7-3.5,114.8-34.8,137.6-57.7c25.7-25.7,25.7-67.5,0-93.2C125.6,334.9,83.8,335,58.1,360.6L58.1,360.6z"/>
</svg>
