<svg id="e1sdyd7ax2ej1" xmlns="http://www.w3.org/2000/svg" xmlns:xlink="http://www.w3.org/1999/xlink" viewBox="0 0 165.720000 130.570000" shape-rendering="geometricPrecision" text-rendering="geometricPrecision"><style><![CDATA[#e1sdyd7ax2ej18_to {animation: e1sdyd7ax2ej18_to__to 3000ms linear infinite normal forwards}@keyframes e1sdyd7ax2ej18_to__to { 0% {transform: translate(-9.099458px,-14.585597px)} 50% {transform: translate(-9.069102px,-25.836172px)} 100% {transform: translate(-9.014968px,-14.585597px)} }#e1sdyd7ax2ej19_to {animation: e1sdyd7ax2ej19_to__to 3000ms linear infinite normal forwards}@keyframes e1sdyd7ax2ej19_to__to { 0% {transform: translate(-9.376310px,-14.585597px)} 50% {transform: translate(-9.345955px,-25.836172px)} 100% {transform: translate(-9.291821px,-14.585597px)} }#e1sdyd7ax2ej20_to {animation: e1sdyd7ax2ej20_to__to 3000ms linear infinite normal forwards}@keyframes e1sdyd7ax2ej20_to__to { 0% {transform: translate(-9.376310px,-14.585597px)} 50% {transform: translate(-9.345955px,-25.836172px)} 100% {transform: translate(-9.291821px,-14.585597px)} }#e1sdyd7ax2ej21_to {animation: e1sdyd7ax2ej21_to__to 3000ms linear infinite normal forwards}@keyframes e1sdyd7ax2ej21_to__to { 0% {transform: translate(-9.376310px,-14.585597px)} 50% {transform: translate(-9.345955px,-25.836172px)} 100% {transform: translate(-9.291821px,-14.585597px)} }#e1sdyd7ax2ej22_to {animation: e1sdyd7ax2ej22_to__to 3000ms linear infinite normal forwards}@keyframes e1sdyd7ax2ej22_to__to { 0% {transform: translate(68.743686px,45.884404px)} 50% {transform: translate(68.774041px,34.633829px)} 100% {transform: translate(68.828175px,45.884404px)} }#e1sdyd7ax2ej23_to {animation: e1sdyd7ax2ej23_to__to 3000ms linear infinite normal forwards}@keyframes e1sdyd7ax2ej23_to__to { 0% {transform: translate(68.743688px,45.884404px)} 50% {transform: translate(68.774043px,34.633829px)} 100% {transform: translate(68.828177px,45.884404px)} }#e1sdyd7ax2ej24_to {animation: e1sdyd7ax2ej24_to__to 3000ms linear infinite normal forwards}@keyframes e1sdyd7ax2ej24_to__to { 0% {transform: translate(-9.376310px,-14.585597px)} 50% {transform: translate(-9.345955px,-25.836172px)} 100% {transform: translate(-9.291821px,-14.585597px)} }#e1sdyd7ax2ej25_to {animation: e1sdyd7ax2ej25_to__to 3000ms linear infinite normal forwards}@keyframes e1sdyd7ax2ej25_to__to { 0% {transform: translate(-9.376310px,-14.585597px)} 50% {transform: translate(-9.345955px,-25.836172px)} 100% {transform: translate(-9.291821px,-14.585597px)} }#e1sdyd7ax2ej26_to {animation: e1sdyd7ax2ej26_to__to 3000ms linear infinite normal forwards}@keyframes e1sdyd7ax2ej26_to__to { 0% {transform: translate(-9.376310px,-14.585597px)} 50% {transform: translate(-9.345955px,-25.836172px)} 100% {transform: translate(-9.291821px,-14.585597px)} }#e1sdyd7ax2ej27_to {animation: e1sdyd7ax2ej27_to__to 3000ms linear infinite normal forwards}@keyframes e1sdyd7ax2ej27_to__to { 0% {transform: translate(47.253690px,72.219400px)} 50% {transform: translate(47.284045px,60.968824px)} 100% {transform: translate(47.338179px,72.219400px)} }#e1sdyd7ax2ej28_to {animation: e1sdyd7ax2ej28_to__to 3000ms linear infinite normal forwards}@keyframes e1sdyd7ax2ej28_to__to { 0% {transform: translate(-9.376310px,-14.585597px)} 50% {transform: translate(-9.345955px,-25.836172px)} 100% {transform: translate(-9.291821px,-14.585597px)} }#e1sdyd7ax2ej38_to {animation: e1sdyd7ax2ej38_to__to 3000ms linear infinite normal forwards}@keyframes e1sdyd7ax2ej38_to__to { 0% {transform: translate(-9.376310px,-14.585597px)} 50% {transform: translate(-9.345955px,-25.836172px)} 100% {transform: translate(-9.291821px,-14.585597px)} }#e1sdyd7ax2ej39_to {animation: e1sdyd7ax2ej39_to__to 3000ms linear infinite normal forwards}@keyframes e1sdyd7ax2ej39_to__to { 0% {transform: translate(-9.376310px,-14.585597px)} 50% {transform: translate(-9.345955px,-25.836172px)} 100% {transform: translate(-9.291821px,-14.585597px)} }#e1sdyd7ax2ej40_to {animation: e1sdyd7ax2ej40_to__to 3000ms linear infinite normal forwards}@keyframes e1sdyd7ax2ej40_to__to { 0% {transform: translate(51.368689px,31.674403px)} 50% {transform: translate(51.399045px,20.423827px)} 100% {transform: translate(51.453179px,31.674403px)} }#e1sdyd7ax2ej41_to {animation: e1sdyd7ax2ej41_to__to 3000ms linear infinite normal forwards}@keyframes e1sdyd7ax2ej41_to__to { 0% {transform: translate(51.368689px,31.674403px)} 50% {transform: translate(51.399045px,20.423827px)} 100% {transform: translate(51.453179px,31.674403px)} }#e1sdyd7ax2ej42_to {animation: e1sdyd7ax2ej42_to__to 3000ms linear infinite normal forwards}@keyframes e1sdyd7ax2ej42_to__to { 0% {transform: translate(-9.376310px,-14.585597px)} 50% {transform: translate(-9.345955px,-25.836172px)} 100% {transform: translate(-9.291821px,-14.585597px)} }#e1sdyd7ax2ej43_to {animation: e1sdyd7ax2ej43_to__to 3000ms linear infinite normal forwards}@keyframes e1sdyd7ax2ej43_to__to { 0% {transform: translate(-9.376310px,-14.585597px)} 50% {transform: translate(-9.345955px,-25.836172px)} 100% {transform: translate(-9.291821px,-14.585597px)} }#e1sdyd7ax2ej44_to {animation: e1sdyd7ax2ej44_to__to 3000ms linear infinite normal forwards}@keyframes e1sdyd7ax2ej44_to__to { 0% {transform: translate(-9.376310px,-14.585597px)} 50% {transform: translate(-9.345955px,-25.836172px)} 100% {transform: translate(-9.291821px,-14.585597px)} }#e1sdyd7ax2ej45_to {animation: e1sdyd7ax2ej45_to__to 3000ms linear infinite normal forwards}@keyframes e1sdyd7ax2ej45_to__to { 0% {transform: translate(-9.376310px,-14.585597px)} 50% {transform: translate(-9.345955px,-25.836172px)} 100% {transform: translate(-9.291821px,-14.585597px)} }#e1sdyd7ax2ej46_to {animation: e1sdyd7ax2ej46_to__to 3000ms linear infinite normal forwards}@keyframes e1sdyd7ax2ej46_to__to { 0% {transform: translate(-9.376310px,-14.585597px)} 50% {transform: translate(-9.345955px,-25.836172px)} 100% {transform: translate(-9.291821px,-14.585597px)} }#e1sdyd7ax2ej47_to {animation: e1sdyd7ax2ej47_to__to 3000ms linear infinite normal forwards}@keyframes e1sdyd7ax2ej47_to__to { 0% {transform: translate(-9.376310px,-14.585597px)} 50% {transform: translate(-9.345955px,-25.836172px)} 100% {transform: translate(-9.291821px,-14.585597px)} }#e1sdyd7ax2ej48_to {animation: e1sdyd7ax2ej48_to__to 3000ms linear infinite normal forwards}@keyframes e1sdyd7ax2ej48_to__to { 0% {transform: translate(-9.376310px,-14.585597px)} 50% {transform: translate(-9.345955px,-25.836172px)} 100% {transform: translate(-9.291821px,-14.585597px)} }#e1sdyd7ax2ej49_to {animation: e1sdyd7ax2ej49_to__to 3000ms linear infinite normal forwards}@keyframes e1sdyd7ax2ej49_to__to { 0% {transform: translate(-9.376310px,-14.585597px)} 50% {transform: translate(-9.345955px,-25.836172px)} 100% {transform: translate(-9.291821px,-14.585597px)} }]]></style><defs><linearGradient id="e1sdyd7ax2ej14-fill" x1="112.390000" y1="84.590000" x2="115.370000" y2="48.830000" spreadMethod="pad" gradientUnits="userSpaceOnUse"><stop id="e1sdyd7ax2ej14-fill-0" offset="1%" stop-color="rgb(0,0,0)"/><stop id="e1sdyd7ax2ej14-fill-1" offset="8%" stop-color="rgba(0,0,0,0.69)"/><stop id="e1sdyd7ax2ej14-fill-2" offset="21%" stop-color="rgba(0,0,0,0.32)"/><stop id="e1sdyd7ax2ej14-fill-3" offset="100%" stop-color="rgba(0,0,0,0)"/></linearGradient><linearGradient id="e1sdyd7ax2ej15-fill" x1="102.110000" y1="70.710000" x2="112.720000" y2="37.220000" spreadMethod="pad" gradientUnits="userSpaceOnUse"><stop id="e1sdyd7ax2ej15-fill-0" offset="1%" stop-color="rgb(0,0,0)"/><stop id="e1sdyd7ax2ej15-fill-1" offset="8%" stop-color="rgba(0,0,0,0.69)"/><stop id="e1sdyd7ax2ej15-fill-2" offset="21%" stop-color="rgba(0,0,0,0.32)"/><stop id="e1sdyd7ax2ej15-fill-3" offset="100%" stop-color="rgba(0,0,0,0)"/></linearGradient><linearGradient id="e1sdyd7ax2ej16-fill" x1="128.548261" y1="73.587252" x2="103.589162" y2="48.688296" spreadMethod="pad" gradientUnits="userSpaceOnUse"><stop id="e1sdyd7ax2ej16-fill-0" offset="1%" stop-color="rgb(0,0,0)"/><stop id="e1sdyd7ax2ej16-fill-1" offset="8%" stop-color="rgba(0,0,0,0.69)"/><stop id="e1sdyd7ax2ej16-fill-2" offset="21%" stop-color="rgba(0,0,0,0.32)"/><stop id="e1sdyd7ax2ej16-fill-3" offset="100%" stop-color="rgba(0,0,0,0)"/></linearGradient><linearGradient id="e1sdyd7ax2ej19-fill" x1="30.190000" y1="52.820000" x2="124.070000" y2="71.490000" spreadMethod="pad" gradientUnits="userSpaceOnUse"><stop id="e1sdyd7ax2ej19-fill-0" offset="1%" stop-color="rgb(0,0,0)"/><stop id="e1sdyd7ax2ej19-fill-1" offset="13%" stop-color="rgba(0,0,0,0.69)"/><stop id="e1sdyd7ax2ej19-fill-2" offset="25%" stop-color="rgba(0,0,0,0.32)"/><stop id="e1sdyd7ax2ej19-fill-3" offset="100%" stop-color="rgba(0,0,0,0)"/></linearGradient><linearGradient id="e1sdyd7ax2ej20-fill" x1="70.480000" y1="49.470000" x2="64.780000" y2="95.840000" spreadMethod="pad" gradientUnits="userSpaceOnUse"><stop id="e1sdyd7ax2ej20-fill-0" offset="1%" stop-color="rgb(0,0,0)"/><stop id="e1sdyd7ax2ej20-fill-1" offset="13%" stop-color="rgba(0,0,0,0.69)"/><stop id="e1sdyd7ax2ej20-fill-2" offset="25%" stop-color="rgba(0,0,0,0.32)"/><stop id="e1sdyd7ax2ej20-fill-3" offset="100%" stop-color="rgba(0,0,0,0)"/></linearGradient><linearGradient id="e1sdyd7ax2ej28-fill" x1="25.440000" y1="64.520000" x2="109.060000" y2="231.770000" spreadMethod="pad" gradientUnits="userSpaceOnUse"><stop id="e1sdyd7ax2ej28-fill-0" offset="1%" stop-color="rgb(0,0,0)"/><stop id="e1sdyd7ax2ej28-fill-1" offset="8%" stop-color="rgba(0,0,0,0.69)"/><stop id="e1sdyd7ax2ej28-fill-2" offset="21%" stop-color="rgba(0,0,0,0.32)"/><stop id="e1sdyd7ax2ej28-fill-3" offset="100%" stop-color="rgba(0,0,0,0)"/></linearGradient><linearGradient id="e1sdyd7ax2ej35-fill" x1="70.720000" y1="93.700000" x2="136.200000" y2="81.860000" spreadMethod="pad" gradientUnits="userSpaceOnUse"><stop id="e1sdyd7ax2ej35-fill-0" offset="1%" stop-color="rgb(0,0,0)"/><stop id="e1sdyd7ax2ej35-fill-1" offset="13%" stop-color="rgba(0,0,0,0.69)"/><stop id="e1sdyd7ax2ej35-fill-2" offset="25%" stop-color="rgba(0,0,0,0.32)"/><stop id="e1sdyd7ax2ej35-fill-3" offset="100%" stop-color="rgba(0,0,0,0)"/></linearGradient><linearGradient id="e1sdyd7ax2ej37-fill" x1="152.970000" y1="92.090000" x2="74.080000" y2="81.050000" spreadMethod="pad" gradientUnits="userSpaceOnUse"><stop id="e1sdyd7ax2ej37-fill-0" offset="1%" stop-color="rgb(0,0,0)"/><stop id="e1sdyd7ax2ej37-fill-1" offset="13%" stop-color="rgba(0,0,0,0.69)"/><stop id="e1sdyd7ax2ej37-fill-2" offset="25%" stop-color="rgba(0,0,0,0.32)"/><stop id="e1sdyd7ax2ej37-fill-3" offset="100%" stop-color="rgba(0,0,0,0)"/></linearGradient><linearGradient id="e1sdyd7ax2ej39-fill" x1="58.593863" y1="44.678353" x2="65.307687" y2="41.179758" spreadMethod="pad" gradientUnits="userSpaceOnUse"><stop id="e1sdyd7ax2ej39-fill-0" offset="1%" stop-color="rgb(0,0,0)"/><stop id="e1sdyd7ax2ej39-fill-1" offset="13%" stop-color="rgba(0,0,0,0.69)"/><stop id="e1sdyd7ax2ej39-fill-2" offset="25%" stop-color="rgba(0,0,0,0.32)"/><stop id="e1sdyd7ax2ej39-fill-3" offset="100%" stop-color="rgba(0,0,0,0)"/></linearGradient><linearGradient id="e1sdyd7ax2ej41-fill" x1="46.888932" y1="32.963433" x2="60.574162" y2="28.711448" spreadMethod="pad" gradientUnits="userSpaceOnUse"><stop id="e1sdyd7ax2ej41-fill-0" offset="1%" stop-color="rgb(0,0,0)"/><stop id="e1sdyd7ax2ej41-fill-1" offset="13%" stop-color="rgba(0,0,0,0.69)"/><stop id="e1sdyd7ax2ej41-fill-2" offset="25%" stop-color="rgba(0,0,0,0.32)"/><stop id="e1sdyd7ax2ej41-fill-3" offset="100%" stop-color="rgba(0,0,0,0)"/></linearGradient><linearGradient id="e1sdyd7ax2ej46-fill" x1="53.952095" y1="55.332797" x2="73.016798" y2="56.313151" spreadMethod="pad" gradientUnits="userSpaceOnUse"><stop id="e1sdyd7ax2ej46-fill-0" offset="1%" stop-color="rgb(0,0,0)"/><stop id="e1sdyd7ax2ej46-fill-1" offset="13%" stop-color="rgba(0,0,0,0.69)"/><stop id="e1sdyd7ax2ej46-fill-2" offset="25%" stop-color="rgba(0,0,0,0.32)"/><stop id="e1sdyd7ax2ej46-fill-3" offset="100%" stop-color="rgba(0,0,0,0)"/></linearGradient><linearGradient id="e1sdyd7ax2ej48-fill" x1="64.645690" y1="40.074018" x2="76.594177" y2="41.669813" spreadMethod="pad" gradientUnits="userSpaceOnUse"><stop id="e1sdyd7ax2ej48-fill-0" offset="1%" stop-color="rgb(0,0,0)"/><stop id="e1sdyd7ax2ej48-fill-1" offset="13%" stop-color="rgba(0,0,0,0.69)"/><stop id="e1sdyd7ax2ej48-fill-2" offset="25%" stop-color="rgba(0,0,0,0.32)"/><stop id="e1sdyd7ax2ej48-fill-3" offset="100%" stop-color="rgba(0,0,0,0)"/></linearGradient></defs><path id="e1sdyd7ax2ej2" style="isolation:isolate" d="M33.540000,23.710000C25.650000,28.170000,18.660000,34.580000,14.670000,42.710000C10.680000,50.840000,10,59.880000,9.580000,68.800000C9.160000,78.800000,9.210000,88.800000,11.660000,98.500000C13.930000,107.430000,18.200000,115.730000,22.990000,123.600000C26.510000,129.380000,30.480000,135.140000,36.160000,138.830000C40.325834,141.341079,44.930817,143.037831,49.730000,143.830000C65.939131,146.967292,82.730537,144.668447,97.500000,137.290000C108.500000,131.770000,118.060000,123.540000,129.670000,119.630000C139.860000,116.200000,151.300000,116.190000,160.480000,110.630000C171.920000,103.630000,177.160000,88.690000,174.360000,75.580000C171.560000,62.470000,161.710000,51.580000,149.770000,45.460000C143,42,135.680000,40,128.860000,36.770000C122.040000,33.540000,115.810000,29.120000,109.160000,25.530000C85.400000,12.680000,57.480000,10.170000,33.540000,23.710000Z" transform="matrix(1 0 0 1 -9.38008904000002 -14.65753381000000)" opacity="0.18" fill="rgb(8,88,178)" stroke="none" stroke-width="1"/><path id="e1sdyd7ax2ej3" d="M115,60L116.330000,60.560000C116.815578,60.692449,117.233365,61.003111,117.500000,61.430000C117.638906,61.880639,117.614113,62.365866,117.430000,62.800000C117.250000,63.390000,117.040000,63.980000,116.810000,64.560000C116.510000,65.330000,116.160000,66.090000,115.930000,66.880000C115.479590,68.878418,115.398253,70.942334,115.690000,72.970000C115.690000,73.630000,114.850000,73.970000,114.200000,74.060000C112.974341,74.317797,111.702699,74.252320,110.510000,73.870000C110.399572,73.839073,110.297202,73.784475,110.210000,73.710000C110.101581,73.570989,110.051386,73.395306,110.070000,73.220000C110,72.130000,110,71,109.850000,70C109.790176,69.454259,109.679700,68.915269,109.520000,68.390000C109.406637,67.874803,109.319856,67.354115,109.260000,66.830000C109.170000,66.410000,109.040000,66,108.970000,65.580000C108.883601,65.156382,108.914724,64.717200,109.060000,64.310000C109.240000,63.870000,109.490000,63.460000,109.710000,63.040000C109.945296,62.583116,110.152351,62.112232,110.330000,61.630000C110.425756,61.278161,110.570507,60.941532,110.760000,60.630000C111.244098,60.055310,111.958601,59.725539,112.710000,59.730000C113.483879,59.653118,114.265223,59.745242,115,60Z" transform="matrix(1 0 0 1 -9.38000000000000 -14.66000000000000)" fill="rgb(255,187,171)" stroke="none" stroke-width="1"/><path id="e1sdyd7ax2ej4" d="M106.810000,54.830000C106.431066,54.354295,106.124428,53.825260,105.900000,53.260000C105.648439,52.536918,105.493761,51.783702,105.440000,51.020000C105.399254,50.745588,105.419744,50.465558,105.500000,50.200000C105.630000,49.840000,105.950000,49.570000,106.050000,49.200000C106.064587,49.161330,106.064587,49.118670,106.050000,49.080000C106.035413,49.041330,106,49,105.920000,49L105.500000,48.890000C105.570437,48.548309,105.513532,48.192656,105.340000,47.890000C105.236080,47.664788,105.007938,47.523182,104.760000,47.530000C104.500000,47.530000,104.370000,47.860000,104.150000,48.010000C103.930000,48.160000,103.690000,48.180000,103.500000,48.330000C103.297974,48.547856,103.183951,48.832914,103.180000,49.130000C103.166314,49.849658,103.274508,50.566444,103.500000,51.250000C103.643668,52.048048,103.837383,52.836270,104.080000,53.610000C104.849173,55.995920,106.079078,58.207710,107.700000,60.120000C108.320000,60.850000,110.700000,63.730000,111.640000,62.990000C112.970000,61.990000,112.100000,60.340000,111.180000,59.550000C109.536252,58.160815,108.068678,56.575701,106.810000,54.830000Z" transform="matrix(1 0 0 1 -9.38000000000000 -14.66000000000000)" fill="rgb(255,187,171)" stroke="none" stroke-width="1"/><path id="e1sdyd7ax2ej5" d="M112.400000,59.520000C111.950000,60.210000,111.510000,60.920000,111.100000,61.640000C110.942123,61.855872,110.877295,62.125988,110.920000,62.390000C110.994572,62.559810,111.130190,62.695428,111.300000,62.770000C112.009564,63.087159,112.832066,63.019246,113.480000,62.590000C114.108296,62.147766,114.664807,61.611492,115.130000,61C115.381031,60.661823,115.693054,60.373540,116.050000,60.150000C116.419544,59.929254,116.880456,59.929254,117.250000,60.150000C117.426193,60.262529,117.545685,60.445200,117.578193,60.651720C117.610700,60.858239,117.553104,61.068785,117.420000,61.230000C117.420000,60.910000,117.030000,60.710000,116.720000,60.790000C116.418933,60.913721,116.168662,61.135791,116.010000,61.420000C115.769005,61.763282,115.548617,62.120578,115.350000,62.490000C115.190031,62.760643,115.072023,63.053976,115,63.360000C114.958756,64.126181,115.229285,64.876449,115.750000,65.440000C115.935587,65.661343,116.084170,65.911233,116.190000,66.180000C116.266339,66.611535,116.231932,67.055385,116.090000,67.470000C115.724944,69.232157,115.633873,71.040078,115.820000,72.830000C115.914992,73.177705,115.836836,73.549879,115.610000,73.830000C115.416754,73.981019,115.174749,74.055755,114.930000,74.040000C113.780000,74.040000,112.640000,73.780000,111.480000,73.810000C110.769276,73.886537,110.054826,73.923261,109.340000,73.920000C109.233711,73.932901,109.128288,73.890040,109.061155,73.806631C108.994022,73.723223,108.974681,73.611076,109.010000,73.510000C109.330144,71.525897,109.380600,69.507622,109.160000,67.510000C108.919505,66.604035,108.772075,65.675895,108.720000,64.740000C108.710762,64.534251,108.748375,64.329091,108.830000,64.140000C108.922297,63.957538,109.040150,63.789175,109.180000,63.640000C109.931257,62.733643,110.471014,61.671209,110.760000,60.530000" transform="matrix(1 0 0 1 -9.38000000000000 -14.66000000000000)" fill="rgb(255,255,255)" stroke="none" stroke-width="1"/><path id="e1sdyd7ax2ej6" d="M115.310000,68.770000C115.325131,69.108250,115.180756,69.434018,114.920000,69.650000C114.836875,69.687299,114.756652,69.730753,114.680000,69.780000C114.530000,69.920000,114.550000,70.160000,114.520000,70.360000C114.391959,70.727157,114.195114,71.066545,113.940000,71.360000C113.691488,71.680839,113.691488,72.129161,113.940000,72.450000C114.120000,72.630000,114.420000,72.660000,114.570000,72.870000C114.720000,73.080000,114.570000,73.760000,114.880000,73.970000C115.088407,74.058443,115.330183,73.982092,115.450000,73.790000C115.557285,73.600662,115.615711,73.387579,115.620000,73.170000Q115.970000,69.800000,116.260000,66.400000C116.314144,66.158904,116.242647,65.906782,116.070000,65.730000C115.920000,65.520000,115.720000,65.120000,115.500000,65.010000C115.250000,65.380000,115.440000,66.180000,115.440000,66.610000C115.400000,67.340000,115.370000,68.060000,115.310000,68.770000Z" transform="matrix(1 0 0 1 -9.38000000000000 -14.66000000000000)" opacity="0.1" fill="rgb(2,2,2)" stroke="none" stroke-width="1"/><path id="e1sdyd7ax2ej7" d="M109.830000,55.620000C109.698777,55.788974,109.612741,55.988578,109.580000,56.200000C109.604934,56.349230,109.659324,56.492005,109.740000,56.620000C109.883848,56.935218,109.968587,57.274173,109.990000,57.620000C109.981324,57.879754,110.047260,58.136555,110.180000,58.360000C110.415682,58.584134,110.735876,58.696929,111.060000,58.670000L111.800000,58.670000C111.888297,58.645240,111.981703,58.645240,112.070000,58.670000C112.151595,58.711973,112.218027,58.778405,112.260000,58.860000C112.489855,59.400055,112.628407,59.974540,112.670000,60.560000C112.690604,60.659276,112.735241,60.751984,112.800000,60.830000C112.851032,60.902837,112.919893,60.961369,113,61C113.520534,61.205053,114.099466,61.205053,114.620000,61C114.753929,60.959526,114.870230,60.874943,114.950000,60.760000C115.001071,60.614347,115.001071,60.455653,114.950000,60.310000C114.893138,59.907403,114.806229,59.509626,114.690000,59.120000C114.481417,58.608717,114.372789,58.062186,114.370000,57.510000C114.370000,57.020000,114.640000,56.570000,114.720000,56.090000C114.839701,55.049648,114.268186,54.052539,113.310000,53.630000C112.505384,53.312192,111.599785,53.378455,110.850000,53.810000C110.580000,53.950000,110.360000,54.020000,110.230000,54.310000C110.100000,54.600000,110.070000,55.210000,109.830000,55.620000Z" transform="matrix(1 0 0 1 -9.38000000000000 -14.66000000000000)" fill="rgb(255,187,171)" stroke="none" stroke-width="1"/><path id="e1sdyd7ax2ej8" d="M109.900000,52.640000C109.856417,52.456426,109.832945,52.268654,109.830000,52.080000C109.830000,51.440000,110.200000,50.710000,110.830000,50.690000C111.280000,50.690000,111.680000,51.030000,112.140000,51.030000C112.329466,51.004411,112.516685,50.964293,112.700000,50.910000C113.180447,50.799967,113.679553,50.799967,114.160000,50.910000C115.198061,51.093644,116.123611,51.674804,116.740000,52.530000C117.366837,53.421174,117.406100,54.599061,116.840000,55.530000C116.510000,56.030000,116,56.390000,115.650000,56.880000C115.482119,57.185942,115.298541,57.483005,115.100000,57.770000C114.920000,57.980000,114.500000,58.320000,114.200000,58.170000C113.900000,58.020000,113.880000,57.530000,113.670000,57.320000C113.875855,57.157379,114.072807,56.983795,114.260000,56.800000C114.445702,56.609840,114.507685,56.330913,114.420000,56.080000C114.300000,55.840000,113.890000,55.790000,113.790000,56.080000C113.852952,55.397409,113.594134,54.724481,113.090000,54.260000C113.018126,54.170787,112.929879,54.096117,112.830000,54.040000C112.720919,54.019888,112.609081,54.019888,112.500000,54.040000C112.190000,54.040000,111.890000,54.040000,111.580000,54.040000C111.050000,54.040000,110.790000,54.190000,110.410000,53.740000C110.149412,53.422551,109.973903,53.044003,109.900000,52.640000Z" transform="matrix(1 0 0 1 -9.38000000000000 -14.66000000000000)" fill="rgb(252,104,45)" stroke="none" stroke-width="1"/><path id="e1sdyd7ax2ej9" d="M112.900000,58.770000C112.982851,58.762552,113.065346,58.787659,113.130000,58.840000C113.183295,58.908515,113.211527,58.993211,113.210000,59.080000C113.249975,59.522432,113.249975,59.967568,113.210000,60.410000C113.198959,60.527522,113.168549,60.642407,113.120000,60.750000C113.061123,60.856263,112.951354,60.924395,112.830000,60.930000C112.700000,60.930000,112.590000,60.820000,112.450000,60.790000C112.302081,60.758058,112.147653,60.794826,112.030000,60.890000C111.917194,60.987639,111.816478,61.098426,111.730000,61.220000C111.508277,61.499414,111.264135,61.760279,111,62C111.178107,61.392615,111.447880,60.815975,111.800000,60.290000C111.879899,60.138147,112.005957,60.015591,112.160000,59.940000C112.280000,59.940000,112.430000,59.940000,112.510000,59.810000C112.590000,59.680000,112.510000,59.430000,112.420000,59.260000C112.330000,59.090000,112.100000,58.850000,112.240000,58.730000C112.380000,58.610000,112.780000,58.760000,112.900000,58.770000Z" transform="matrix(1 0 0 1 -9.38000000000000 -14.66000000000000)" fill="rgb(224,161,148)" stroke="none" stroke-width="1"/><path id="e1sdyd7ax2ej10" d="M122.540000,56.410000C122.934821,56.040316,123.302443,55.642616,123.640000,55.220000C124.605772,54.013472,125.134488,52.515443,125.140000,50.970000C125.104951,50.801806,125.104951,50.628194,125.140000,50.460000C125.181985,50.292825,125.319742,50.166877,125.490000,50.140000C125.562992,50.150005,125.637008,50.150005,125.710000,50.140000C125.820000,50.140000,125.870000,49.990000,125.960000,49.910000C126.112841,49.813993,126.307159,49.813993,126.460000,49.910000C126.612998,50.006575,126.745512,50.132293,126.850000,50.280000C127.010000,50.500000,127.170000,50.730000,127.310000,50.960000C127.436669,51.136200,127.512746,51.343682,127.530000,51.560000C127.487771,51.908826,127.312172,52.227771,127.040000,52.450000C126.730000,52.450000,126.490000,53.280000,126.410000,53.450000C126.250000,53.900000,126.070000,54.350000,125.870000,54.780000C124.677725,57.379830,122.913876,59.676935,120.710000,61.500000C119.970000,62.110000,117.170000,64.500000,116.330000,63.650000C115.180000,62.430000,116.330000,60.960000,117.330000,60.330000C119.224272,59.247124,120.974698,57.930104,122.540000,56.410000Z" transform="matrix(1 0 0 1 -9.35990341000001 -14.20177814499998)" fill="rgb(255,187,171)" stroke="none" stroke-width="1"/><path id="e1sdyd7ax2ej11" d="M110.450000,56.660000C110.633027,56.645015,110.816973,56.645015,111,56.660000C111.022095,56.649250,111.047905,56.649250,111.070000,56.660000C111.169918,56.941393,111.169918,57.248607,111.070000,57.530000C111.031667,57.638052,110.966247,57.734460,110.880000,57.810000C110.782986,57.874176,110.657014,57.874176,110.560000,57.810000C110.484683,57.747063,110.429128,57.663730,110.400000,57.570000C110.260243,57.288233,110.201395,56.973219,110.230000,56.660000L110.230000,56.660000C110.341955,56.634999,110.458045,56.634999,110.570000,56.660000" transform="matrix(1 0 0 1 -9.38000000000000 -14.66000000000000)" fill="rgb(255,255,255)" stroke="none" stroke-width="1"/><path id="e1sdyd7ax2ej12" d="M109.270000,57.340000L109.180000,57.340000C109.191390,57.327085,109.207780,57.319686,109.225000,57.319686C109.242220,57.319686,109.258610,57.327085,109.270000,57.340000Z" transform="matrix(1 0 0 1 -9.38000000000000 -14.66000000000000)" fill="rgb(8,88,178)" stroke="none" stroke-width="1"/><path id="e1sdyd7ax2ej13" d="M125.930000,54.890000C125.897754,55.430648,125.743934,55.957053,125.480000,56.430000C123.882315,59.783018,121.151730,62.464021,117.770000,64C117.576115,64.062770,117.400865,64.172731,117.260000,64.320000C117.158401,64.460545,117.086909,64.620551,117.050000,64.790000C116.280000,67.790000,116.450000,70.850000,115.900000,73.850000C115.881734,74.118314,115.772362,74.372339,115.590000,74.570000C115.326071,74.756914,114.999145,74.832358,114.680000,74.780000L114.030000,74.780000C112.485901,74.696409,110.947171,74.532856,109.420000,74.290000C109.151539,74.276305,108.898069,74.162064,108.710000,73.970000C108.580772,73.731501,108.545116,73.453385,108.610000,73.190000C108.681884,71.129973,108.598314,69.067458,108.360000,67.020000C108.275005,66.021806,108.275005,65.018194,108.360000,64.020000C108.485306,63.521081,108.485306,62.998919,108.360000,62.500000C108.302597,62.354348,108.221503,62.219192,108.120000,62.100000C107.683173,61.683463,107.222388,61.292798,106.740000,60.930000C106.076329,60.176285,105.603095,59.274397,105.360000,58.300000C104.900000,56.920000,104.420000,55.550000,103.980000,54.170000C103.650000,53.170000,104.170000,52.700000,104.920000,52.320000C105.190000,52.180000,105.490000,52.050000,105.800000,51.910000C106.065425,52.978723,106.447729,54.014968,106.940000,55C107.426533,55.972947,108.211416,56.764838,109.180000,57.260000C109.164087,57.260000,109.148826,57.266321,109.137574,57.277574C109.126321,57.288826,109.120000,57.304087,109.120000,57.320000C109.119913,57.395961,109.157337,57.467066,109.220000,57.510000C109.890000,58.130000,110.570000,58.740000,111.220000,59.370000C111.345337,59.500431,111.499440,59.599742,111.670000,59.660000C111.870000,59.660000,112.560000,59.480000,112.530000,59.850000C112.534679,59.869726,112.534679,59.890274,112.530000,59.910000C112.530000,60.040000,112.410000,60.140000,112.390000,60.270000C112.382831,60.431507,112.473586,60.581451,112.620000,60.650000C112.762157,60.721239,112.922138,60.749062,113.080000,60.730000C113.254604,60.719480,113.426582,60.682386,113.590000,60.620000C113.860000,60.510000,114.080000,60.320000,114.340000,60.190000C114.736691,60.041558,115.169122,60.017146,115.580000,60.120000C116.028232,60.153687,116.478960,60.126778,116.920000,60.040000C118.196124,59.742496,119.376133,59.126690,120.350000,58.250000C121.711234,56.930279,122.974573,55.513200,124.130000,54.010000C124.259012,53.836885,124.426843,53.696455,124.620000,53.600000C124.953324,53.489821,125.320292,53.583514,125.560000,53.840000C125.829769,54.119781,125.964774,54.502904,125.930000,54.890000Z" transform="matrix(1 0 0 1 -9.38000000000000 -14.66000000000000)" fill="rgb(255,255,255)" stroke="none" stroke-width="1"/><path id="e1sdyd7ax2ej14" d="M125.930000,54.890000C125.897754,55.430648,125.743934,55.957053,125.480000,56.430000C123.882315,59.783018,121.151730,62.464021,117.770000,64C117.576115,64.062770,117.400865,64.172731,117.260000,64.320000C117.158401,64.460545,117.086909,64.620551,117.050000,64.790000C116.280000,67.790000,116.450000,70.850000,115.900000,73.850000C115.881734,74.118314,115.772362,74.372339,115.590000,74.570000C115.326071,74.756914,114.999145,74.832358,114.680000,74.780000L114.030000,74.780000C112.485901,74.696409,110.947171,74.532856,109.420000,74.290000C109.151539,74.276305,108.898069,74.162064,108.710000,73.970000C108.580772,73.731501,108.545116,73.453385,108.610000,73.190000C108.681884,71.129973,108.598314,69.067458,108.360000,67.020000C108.275005,66.021806,108.275005,65.018194,108.360000,64.020000C108.485306,63.521081,108.485306,62.998919,108.360000,62.500000C108.302597,62.354348,108.221503,62.219192,108.120000,62.100000C107.683173,61.683463,107.222388,61.292798,106.740000,60.930000C106.076329,60.176285,105.603095,59.274397,105.360000,58.300000C104.900000,56.920000,104.420000,55.550000,103.980000,54.170000C103.650000,53.170000,104.170000,52.700000,104.920000,52.320000C105.190000,52.180000,105.490000,52.050000,105.800000,51.910000C106.065425,52.978723,106.447729,54.014968,106.940000,55C107.426533,55.972947,108.211416,56.764838,109.180000,57.260000C109.164087,57.260000,109.148826,57.266321,109.137574,57.277574C109.126321,57.288826,109.120000,57.304087,109.120000,57.320000C109.119913,57.395961,109.157337,57.467066,109.220000,57.510000C109.890000,58.130000,110.570000,58.740000,111.220000,59.370000C111.345337,59.500431,111.499440,59.599742,111.670000,59.660000C111.870000,59.660000,112.560000,59.480000,112.530000,59.850000C112.534679,59.869726,112.534679,59.890274,112.530000,59.910000C112.530000,60.040000,112.410000,60.140000,112.390000,60.270000C112.382831,60.431507,112.473586,60.581451,112.620000,60.650000C112.762157,60.721239,112.922138,60.749062,113.080000,60.730000C113.254604,60.719480,113.426582,60.682386,113.590000,60.620000C113.860000,60.510000,114.080000,60.320000,114.340000,60.190000C114.736691,60.041558,115.169122,60.017146,115.580000,60.120000C116.028232,60.153687,116.478960,60.126778,116.920000,60.040000C118.196124,59.742496,119.376133,59.126690,120.350000,58.250000C121.711234,56.930279,122.974573,55.513200,124.130000,54.010000C124.259012,53.836885,124.426843,53.696455,124.620000,53.600000C124.953324,53.489821,125.320292,53.583514,125.560000,53.840000C125.829769,54.119781,125.964774,54.502904,125.930000,54.890000Z" transform="matrix(1 0 0 1 -9.38000000000000 -14.66000000000000)" fill="url(#e1sdyd7ax2ej14-fill)" stroke="none" stroke-width="1"/><path id="e1sdyd7ax2ej15" d="M108.380000,62.460000C108.300000,62.340000,108.230000,62.210000,108.140000,62.100000C107.703173,61.683463,107.242388,61.292798,106.760000,60.930000C106.096329,60.176285,105.623095,59.274397,105.380000,58.300000C104.920000,56.920000,104.440000,55.550000,104,54.170000C103.670000,53.170000,104.190000,52.700000,104.940000,52.320000C105.093774,52.463452,105.216325,52.637066,105.300000,52.830000C105.455552,53.253912,105.566158,53.692986,105.630000,54.140000C105.876608,55.160668,106.303290,56.129168,106.890000,57C107.480000,57.940000,108.040000,58.900000,108.630000,59.840000C108.664759,59.892493,108.691707,59.949758,108.710000,60.010000C108.734155,60.101770,108.734155,60.198230,108.710000,60.290000C108.591655,60.659915,108.517801,61.042612,108.490000,61.430000C108.440000,61.670000,108.570000,62.330000,108.380000,62.460000Z" transform="matrix(1 0 0 1 -9.38000000000000 -14.66000000000000)" fill="url(#e1sdyd7ax2ej15-fill)" stroke="none" stroke-width="1"/><path id="e1sdyd7ax2ej16" d="M125.930000,54.890000C125.897754,55.430648,125.743934,55.957053,125.480000,56.430000C123.882315,59.783018,121.151730,62.464021,117.770000,64C117.576115,64.062770,117.400865,64.172731,117.260000,64.320000C117.158401,64.460545,117.086909,64.620551,117.050000,64.790000C116.280000,67.790000,116.450000,70.850000,115.900000,73.850000C115.881734,74.118314,115.772362,74.372339,115.590000,74.570000C115.326071,74.756914,114.999145,74.832358,114.680000,74.780000L114.030000,74.780000L114.030000,74.780000C113.842240,74.766866,113.661998,74.701008,113.510000,74.590000C113.365596,74.452105,113.273674,74.268260,113.250000,74.070000C113.114593,72.935351,113.064452,71.792147,113.100000,70.650000C113.143049,69.483024,112.622050,68.366597,111.700000,67.650000C111.469320,67.539598,111.256868,67.394591,111.070000,67.220000C110.887127,67.030218,110.887127,66.729782,111.070000,66.540000C111.164998,66.476937,111.275998,66.442250,111.390000,66.440000C112.041472,66.394028,112.689413,66.307190,113.330000,66.180000C113.973371,66.061110,114.548269,65.704031,114.940000,65.180000C115.270000,64.680000,115.340000,64.040000,115.700000,63.560000C116.190216,63.064259,116.810845,62.717539,117.490000,62.560000C119.845160,61.640599,121.929720,60.140816,123.550000,58.200000C124.270000,57.330000,124.820000,55.760000,125.710000,55.110000C125.772331,55.026433,125.846433,54.952331,125.930000,54.890000Z" transform="matrix(1 0 0 1 -9.38000000000000 -14.66000000000000)" fill="url(#e1sdyd7ax2ej16-fill)" stroke="none" stroke-width="1"/><g id="e1sdyd7ax2ej17"><g id="e1sdyd7ax2ej18_to" transform="translate(-9.099458,-14.585597)"><path id="e1sdyd7ax2ej18" d="M75.134759,93.560000C71.041733,96.543066,66.698372,99.159674,62.154183,101.380000L61.510108,101.460000L61.331749,101.460000C60.979735,101.444236,60.652412,101.273000,60.436745,100.991787C60.221078,100.710574,60.138902,100.347856,60.212050,100C60.253839,99.636596,60.316702,99.275977,60.400318,98.920000Q61.262387,94.840000,62.134365,90.770000C62.201920,90.565372,62.119522,90.340851,61.936188,90.230000L51.561635,82.100000C51.426329,81.966300,51.218643,81.941641,51.056285,82.040000C50.441937,82.360000,49.807771,82.650000,49.173606,82.940000C46.944117,84,44.793900,85,42.594138,86C42.302285,86.148820,41.961440,86.165148,41.656931,86.044897C41.352422,85.924645,41.113077,85.679197,40.998815,85.370000L40.870000,85.070000C40.870000,85.070000,40.870000,84.960000,40.870000,84.910000C40.968500,84.106730,41.107403,83.309034,41.286171,82.520000C42.394183,78.369535,43.754265,74.291826,45.358703,70.310000C46.109047,68.167153,47.577577,66.356164,49.510506,65.190000C50.976980,64.353333,52.593809,63.819630,54.266748,63.620000C55.560649,63.431881,56.864124,63.318364,58.170830,63.280000C58.577092,63.280000,58.993263,63.280000,59.409435,63.280000C59.583466,63.255941,59.740590,63.162240,59.845423,63.020000C60.836307,61.560000,61.767738,60.020000,62.818075,58.620000C64.281412,56.512870,65.855884,54.486616,67.534681,52.550000C69.284790,50.751081,71.123557,49.042250,73.043995,47.430000C74.985890,45.695516,77.074745,44.136211,79.286562,42.770000C82.607703,40.843861,86.165881,39.367821,89.869200,38.380000C90.582637,38.160000,91.305982,37.970000,92.029327,37.770000L93.515653,37.610000L93.783191,37.610000C94.491401,37.694682,95.086664,38.186196,95.309152,38.870000C95.313897,38.913201,95.313897,38.956799,95.309152,39C95.376397,39.330021,95.422732,39.664031,95.447876,40C95.593346,41.755469,95.560143,43.521364,95.348788,45.270000C95.132525,48.429589,94.516476,51.548255,93.515653,54.550000C92.512484,57.342483,91.320624,60.062205,89.948471,62.690000C88.866017,64.934622,87.585935,67.076565,86.123660,69.090000C83.791697,72.172588,81.297698,75.126825,78.652397,77.940000C78.483874,78.093506,78.425001,78.335127,78.503764,78.550000C78.682123,79.330000,78.850573,80.110000,78.989297,80.890000C79.343836,82.507362,79.477194,84.166111,79.385651,85.820000C79.266166,88.934632,77.688600,91.807056,75.134759,93.560000Z" transform="translate(0,0)" fill="rgb(255,255,255)" stroke="none" stroke-width="1"/></g></g><g id="e1sdyd7ax2ej19_to" transform="translate(-9.376310,-14.585597)"><path id="e1sdyd7ax2ej19" d="M58,86.260000L51.700000,81.350000C51.700000,81.350000,54.410000,73,58.330000,63.280000C58.740000,63.280000,59.160000,63.280000,59.580000,63.280000C59.755632,63.255941,59.914202,63.162240,60.020000,63.020000C61.020000,61.560000,61.960000,60.020000,63.020000,58.620000C64.496801,56.512870,66.085758,54.486616,67.780000,52.550000C69.546210,50.751081,71.401894,49.042250,73.340000,47.430000C75.299761,45.695516,77.407834,44.136211,79.640000,42.770000C82.991696,40.843861,86.582610,39.367821,90.320000,38.380000C91.040000,38.160000,91.770000,37.970000,92.500000,37.770000L94,37.610000L94.270000,37.610000C94.984726,37.694682,95.585465,38.186196,95.810000,38.870000C95.814789,38.913201,95.814789,38.956799,95.810000,39C92.240000,41.900000,66.450000,63.210000,58,86.260000Z" transform="translate(0,0)" fill="url(#e1sdyd7ax2ej19-fill)" stroke="none" stroke-width="1"/></g><g id="e1sdyd7ax2ej20_to" transform="translate(-9.376310,-14.585597)"><path id="e1sdyd7ax2ej20" d="M65.230000,67.650000C66.026407,67.230701,66.741075,66.671838,67.340000,66C68.570000,67.630000,69,69.710000,69.830000,71.570000C69.985810,72.027690,70.288052,72.421308,70.690000,72.690000C71.050031,72.840679,71.441059,72.902420,71.830000,72.870000C72.600000,72.870000,73.370000,72.870000,74.140000,72.870000C74.960833,72.873660,75.772740,72.699680,76.520000,72.360000C76.930000,72.160000,77.330000,71.760000,77.210000,71.360000C77.090000,70.960000,76.510000,70.780000,76.040000,70.780000C75.448594,70.817680,74.854917,70.763709,74.280000,70.620000C73.555549,70.306291,72.979217,69.726379,72.670000,69C72.349597,68.323943,72.088613,67.621294,71.890000,66.900000C71.478925,65.674756,70.970643,64.484304,70.370000,63.340000C70.029817,62.627361,69.565971,61.980685,69,61.430000C68.428119,60.878668,67.653307,60.589018,66.860000,60.630000C65.440000,60.780000,64.520000,62.220000,63.200000,62.760000C62.570994,62.914514,61.958205,63.128823,61.370000,63.400000C60.997202,63.671972,60.678415,64.011107,60.430000,64.400000C59.655748,65.486547,59.089524,66.707149,58.760000,68C60.892549,68.632503,63.178128,68.508863,65.230000,67.650000Z" transform="translate(0,0)" fill="url(#e1sdyd7ax2ej20-fill)" stroke="none" stroke-width="1"/></g><g id="e1sdyd7ax2ej21_to" transform="translate(-9.376310,-14.585597)"><path id="e1sdyd7ax2ej21" d="M67.360000,59.790000C67.360000,59.790000,69.360000,59.610000,70.100000,60.340000C71.252612,61.675064,72.053516,63.276872,72.430000,65C72.610000,65.660000,72.830000,66.300000,72.980000,67C73.074279,67.619238,73.256098,68.221933,73.520000,68.790000C73.682399,69.107390,73.956766,69.353252,74.290000,69.480000C74.552146,69.540026,74.821833,69.560252,75.090000,69.540000C75.424660,69.536861,75.759041,69.560268,76.090000,69.610000C76.154024,69.614877,76.215854,69.635487,76.270000,69.670000C76.307653,69.719653,76.331773,69.778230,76.340000,69.840000C76.379814,70.190920,76.231572,70.536817,75.950000,70.750000C75.103835,71.155723,74.145760,71.264915,73.230000,71.060000C72.130000,70.690000,71.780000,68.650000,71.380000,67.700000C70.800000,66.310000,70.180000,64.950000,69.520000,63.600000C69.450226,63.421162,69.340817,63.260468,69.200000,63.130000C69.034051,63.020970,68.846385,62.949316,68.650000,62.920000L66.240000,62.400000C66.470000,61.530000,67.110000,60.650000,67.360000,59.790000Z" transform="translate(0,0)" fill="rgb(255,187,171)" stroke="none" stroke-width="1"/></g><g id="e1sdyd7ax2ej22_to" transform="translate(68.743686,45.884404)"><circle id="e1sdyd7ax2ej22" r="5.910000" transform="translate(0.000004,-0.000001)" fill="rgb(8,88,178)" stroke="none" stroke-width="1"/></g><g id="e1sdyd7ax2ej23_to" transform="translate(68.743688,45.884404)"><circle id="e1sdyd7ax2ej23" r="3.930000" transform="translate(0.000002,-0.000001)" fill="rgb(71,63,71)" stroke="none" stroke-width="1"/></g><g id="e1sdyd7ax2ej24_to" transform="translate(-9.376310,-14.585597)"><path id="e1sdyd7ax2ej24" d="M60.690000,63.630000L51.320000,82.190000L42.430000,86.190000C42.430000,86.190000,40.700000,87.340000,40.870000,84.980000C41.040000,82.620000,45.630000,69.360000,47,67.520000C48.370000,65.680000,52.540000,62.320000,60.690000,63.630000Z" transform="translate(0,0)" fill="rgb(8,88,178)" stroke="none" stroke-width="1"/></g><g id="e1sdyd7ax2ej25_to" transform="translate(-9.376310,-14.585597)"><path id="e1sdyd7ax2ej25" d="M78.770000,78.150000L62.330000,90.770000L59.930000,101.910000C60.671426,102.891866,62.004734,103.210518,63.110000,102.670000C65.360000,101.920000,76.990000,94.170000,78.440000,92.420000C79.890000,90.670000,82.070000,85.710000,78.770000,78.150000Z" transform="translate(0,0)" fill="rgb(8,88,178)" stroke="none" stroke-width="1"/></g><g id="e1sdyd7ax2ej26_to" transform="translate(-9.376310,-14.585597)"><path id="e1sdyd7ax2ej26" d="M87.900000,39.160000L95.820000,45.280000C95.820000,45.280000,96.230000,38.940000,95.820000,37.610000C95.410000,36.280000,87.900000,39.160000,87.900000,39.160000Z" transform="translate(0,0)" fill="rgb(8,88,178)" stroke="none" stroke-width="1"/></g><g id="e1sdyd7ax2ej27_to" transform="translate(47.253690,72.219400)"><polygon id="e1sdyd7ax2ej27" points="42.330000,66.700000 40.760000,69.490000 51.310000,77.590000 53.740000,75.510000 42.330000,66.700000" transform="translate(-47.250000,-72.144997)" fill="rgb(8,88,178)" stroke="none" stroke-width="1"/></g><g id="e1sdyd7ax2ej28_to" transform="translate(-9.376310,-14.585597)"><path id="e1sdyd7ax2ej28" d="M50.140000,84.140000C50.140000,84.140000,19.680000,116.580000,39.660000,131.480000C59.640000,146.380000,82.730000,136.560000,82.730000,136.560000C82.730000,136.560000,49.730000,143.850000,44.920000,125.340000C42.110000,114.510000,60.690000,92.250000,60.690000,92.250000Z" transform="translate(0,0)" opacity="0.36" fill="url(#e1sdyd7ax2ej28-fill)" stroke="none" stroke-width="1"/></g><path id="e1sdyd7ax2ej29" d="M114.740000,113L122.160000,117.510000L103.320000,117.510000L110.740000,112.710000L110.740000,108.800000L109.500000,107.330000L109.500000,102.670000C97.360000,98.470000,97.650000,72.430000,97.650000,72.430000L127.830000,72.430000C127.830000,72.430000,127.830000,72.530000,127.830000,72.740000C128.010000,75.600000,129.020000,97.520000,117.650000,102.300000C117.202053,102.492751,116.740873,102.653162,116.270000,102.780000L116.270000,106.780000L115.270000,108.070000L114.740000,108.740000Z" transform="matrix(1 0 0 1 -9.38000000000000 -14.66000000000000)" fill="rgb(8,88,178)" stroke="none" stroke-width="1"/><path id="e1sdyd7ax2ej30" d="M98.930000,95C98.190240,95.025199,97.470785,94.755403,96.930000,94.250000C96.271146,93.530134,96.080902,92.497383,96.440000,91.590000L97.820000,91.990000C97.640555,92.407415,97.710073,92.890175,98,93.240000C98.431342,93.576038,99.003753,93.670184,99.520000,93.490000C99.897944,93.416962,100.215780,93.162693,100.370000,92.810000C100.250000,92.390000,98.370000,90.810000,96.910000,89.480000C92.910000,85.980000,87.910000,81.630000,89.540000,78.130000C89.996546,77.012999,90.965257,76.185869,92.140000,75.910000C95.340000,75.170000,99.580000,78.610000,99.760000,78.760000L98.850000,79.870000C97.780000,78.990000,94.540000,76.870000,92.460000,77.310000C91.718250,77.492315,91.112963,78.026612,90.840000,78.740000C89.660000,81.260000,94.590000,85.550000,97.840000,88.390000C100.740000,90.920000,102.010000,92.080000,101.760000,93.150000C101.497240,94.019828,100.786555,94.680842,99.900000,94.880000C99.582788,94.959501,99.257023,94.999802,98.930000,95Z" transform="matrix(1 0 0 1 -9.38000000000000 -14.66000000000000)" fill="rgb(8,88,178)" stroke="none" stroke-width="1"/><path id="e1sdyd7ax2ej31" d="M127.490000,95C127.168826,95.001098,126.849072,94.957342,126.540000,94.870000C125.649618,94.674054,124.934501,94.012476,124.670000,93.140000C124.420000,92.070000,125.670000,90.910000,128.590000,88.380000C131.850000,85.540000,136.780000,81.250000,135.590000,78.730000C135.327577,78.069397,134.760861,77.577250,134.070000,77.410000C131.800000,76.910000,128.070000,79.410000,126.860000,80.410000L126,79.290000C126.210000,79.130000,131,75.290000,134.440000,76.020000C135.569290,76.274763,136.504935,77.061301,136.950000,78.130000C138.590000,81.630000,133.590000,85.980000,129.580000,89.480000C128.090000,90.780000,126.240000,92.390000,126.120000,92.910000C126.200000,93.160000,126.610000,93.390000,126.970000,93.490000C127.482436,93.676276,128.054943,93.581491,128.480000,93.240000C128.749340,92.882524,128.799344,92.405564,128.610000,92L130,91.600000C130.358964,92.509020,130.164538,93.543368,129.500000,94.260000C128.955731,94.765231,128.231945,95.031700,127.490000,95Z" transform="matrix(1 0 0 1 -9.38000000000000 -14.66000000000000)" fill="rgb(8,88,178)" stroke="none" stroke-width="1"/><path id="e1sdyd7ax2ej32" d="M117.670000,102.310000C117.222053,102.502751,116.760873,102.663162,116.290000,102.790000L116.290000,102.890000L109.500000,102.890000L109.500000,102.670000C97.360000,98.470000,97.650000,72.430000,97.650000,72.430000L105.050000,72.430000C105.050000,72.430000,101.770000,89.680000,112.800000,100.130000C115.150000,102.370000,116,101.810000,117.670000,102.310000Z" transform="matrix(1 0 0 1 -9.38000000000000 -14.66000000000000)" opacity="0.28" fill="rgb(255,255,255)" stroke="none" stroke-width="1"/><path id="e1sdyd7ax2ej33" d="M121.710000,102.880000C121.252442,102.947035,120.787558,102.947035,120.330000,102.880000Z" transform="matrix(1 0 0 1 -9.38000000000000 -14.66000000000000)" fill="rgb(8,88,178)" stroke="none" stroke-width="1"/><polygon id="e1sdyd7ax2ej34" points="102.340000,88.230000 102.340000,92.580000 103.420000,94.030000 103.420000,98.060000 100.500000,102.870000 94.880000,102.870000 102.160000,98.330000 102.160000,94.120000 100.720000,92.360000 100.720000,87.980000 102.340000,88.230000" opacity="0.28" fill="rgb(255,255,255)" stroke="none" stroke-width="1"/><path id="e1sdyd7ax2ej35" d="M109.500000,102.900000L109.500000,102.680000C97.360000,98.480000,97.650000,72.440000,97.650000,72.440000L99.800000,72.440000C99.800000,72.440000,98.480000,95.370000,110.100000,102.640000L110.500000,102.900000Z" transform="matrix(1 0 0 1 -9.38000000000000 -14.66000000000000)" fill="url(#e1sdyd7ax2ej35-fill)" stroke="none" stroke-width="1"/><path id="e1sdyd7ax2ej36" d="M116.290000,102.790000L116.290000,106.790000L115.290000,108.080000C113.170000,107.350000,112.840000,105.790000,116.290000,102.790000Z" transform="matrix(1 0 0 1 -9.38000000000000 -14.66000000000000)" fill="rgb(8,88,178)" stroke="none" stroke-width="1"/><path id="e1sdyd7ax2ej37" d="M117.670000,102.310000C117.222053,102.502751,116.760873,102.663162,116.290000,102.790000C127.530000,93.040000,121.710000,72.440000,121.710000,72.440000L127.850000,72.750000C128,75.610000,129,97.530000,117.670000,102.310000Z" transform="matrix(1 0 0 1 -9.38000000000000 -14.66000000000000)" fill="url(#e1sdyd7ax2ej37-fill)" stroke="none" stroke-width="1"/><g id="e1sdyd7ax2ej38_to" transform="translate(-9.376310,-14.585597)"><path id="e1sdyd7ax2ej38" d="M61.760000,46.060000L62.460000,44.630000C63.110795,43.216204,63.876707,41.858298,64.750000,40.570000C66.560000,38.080000,67.500000,35.070000,69.060000,32.410000C69.162325,32.265484,69.224441,32.096389,69.240000,31.920000C69.240000,31.530000,68.780000,31.310000,68.390000,31.210000C67.877845,31.039391,67.330770,31.001543,66.800000,31.100000C66.259741,31.208070,65.833102,31.622967,65.710000,32.160000C65.703436,32.464895,65.726882,32.769696,65.780000,33.070000C65.749033,33.921212,65.455634,34.742030,64.940000,35.420000L61,41.800000C60.457325,42.514694,60.112427,43.359694,60,44.250000C60.047462,45.210325,60.801381,45.985662,61.760000,46.060000Z" transform="translate(0,0)" fill="rgb(255,187,171)" stroke="none" stroke-width="1"/></g><g id="e1sdyd7ax2ej39_to" transform="translate(-9.376310,-14.585597)"><path id="e1sdyd7ax2ej39" d="M61.760000,46.060000C62.079261,45.573380,62.197541,44.981980,62.090000,44.410000C61.975138,43.657692,61.975138,42.892308,62.090000,42.140000C62.327961,41.417191,62.369376,40.644094,62.210000,39.900000C62.050624,39.155906,62.210000,39.830000,62.150000,39.810000C62.101119,39.779181,62.038881,39.779181,61.990000,39.810000C61.745987,39.956732,61.564465,40.188084,61.480000,40.460000C61.060000,41.460000,59.780000,43.150000,59.960000,44.240000C60.004585,45.218457,60.782095,46.004606,61.760000,46.060000Z" transform="translate(0,0)" fill="url(#e1sdyd7ax2ej39-fill)" stroke="none" stroke-width="1"/></g><g id="e1sdyd7ax2ej40_to" transform="translate(51.368689,31.674403)"><polygon id="e1sdyd7ax2ej40" points="49.110000,32.050000 51.170000,29.440000 53.620000,31.680000 51.310000,33.760000 49.110000,32.050000" transform="translate(-51.365000,-31.599999)" fill="rgb(8,88,178)" stroke="none" stroke-width="1"/></g><g id="e1sdyd7ax2ej41_to" transform="translate(51.368689,31.674403)"><polygon id="e1sdyd7ax2ej41" points="49.110000,32.050000 51.170000,29.440000 53.620000,31.680000 51.310000,33.760000 49.110000,32.050000" transform="translate(-51.365000,-31.599999)" fill="url(#e1sdyd7ax2ej41-fill)" stroke="none" stroke-width="1"/></g><g id="e1sdyd7ax2ej42_to" transform="translate(-9.376310,-14.585597)"><path id="e1sdyd7ax2ej42" d="M63.760000,49.930000L64.710000,50.260000C65.040000,50.370000,65.710000,50.810000,66.020000,50.510000C66.330000,50.210000,66.020000,49.300000,66.020000,48.970000C65.862321,47.786124,65.577337,46.622721,65.170000,45.500000C64.863893,44.957490,64.802115,44.310644,65,43.720000C65.175005,43.408604,65.502821,43.214201,65.860000,43.210000C66.211675,43.215752,66.537595,43.395570,66.730000,43.690000C66.865552,44.010806,66.962887,44.346447,67.020000,44.690000C67.126365,44.914112,67.167930,45.163505,67.140000,45.410000C67.084848,45.519651,67.038049,45.633307,67,45.750000C66.993114,45.880410,67.017097,46.010604,67.070000,46.130000L68.320000,49.420000C68.666324,50.123097,68.798462,50.912446,68.700000,51.690000C68.342608,52.742848,67.306381,53.410178,66.200000,53.300000C65.007746,53.181715,63.860104,52.784322,62.850000,52.140000C62.740000,52.080000,62.610000,51.970000,62.650000,51.850000C62.680285,51.797842,62.725589,51.756023,62.780000,51.730000C63.103407,51.543205,63.374976,51.278512,63.570000,50.960000C63.790584,50.665123,63.860857,50.284172,63.760000,49.930000Z" transform="translate(0,0)" fill="rgb(255,187,171)" stroke="none" stroke-width="1"/></g><g id="e1sdyd7ax2ej43_to" transform="translate(-9.376310,-14.585597)"><path id="e1sdyd7ax2ej43" d="M60.940000,44.580000C60.916179,44.717021,60.849681,44.843016,60.750000,44.940000C60.595983,45.036513,60.421121,45.094800,60.240000,45.110000C60.053676,45.130808,59.876953,45.203576,59.730000,45.320000C59.683741,45.404056,59.683741,45.505944,59.730000,45.590000L60,46.740000C60.029739,46.824115,60.029739,46.915885,60,47C59.946683,47.099472,59.857182,47.174653,59.750000,47.210000C59.350000,47.400000,58.840000,47.570000,58.490000,47.300000C58.313759,47.141279,58.191411,46.931539,58.140000,46.700000C57.625064,45.423289,57.314587,44.073391,57.220000,42.700000C57.143909,41.863004,57.435947,41.034346,58.020000,40.430000C58.581883,39.974147,59.299354,39.755318,60.020000,39.820000C60.347609,39.835986,60.646551,40.011615,60.820000,40.290000C60.930000,40.490000,60.820000,40.700000,60.890000,40.920000C60.921488,41.240659,60.978333,41.558320,61.060000,41.870000C61.100998,42.019583,61.151091,42.166523,61.210000,42.310000C61.277175,42.428139,61.324472,42.556517,61.350000,42.690000C61.350860,42.935701,61.296164,43.178417,61.190000,43.400000C61.089812,43.671577,61.019400,43.953226,60.980000,44.240000C61,44.380000,61,44.480000,60.940000,44.580000Z" transform="translate(0,0)" fill="rgb(255,187,171)" stroke="none" stroke-width="1"/></g><g id="e1sdyd7ax2ej44_to" transform="translate(-9.376310,-14.585597)"><path id="e1sdyd7ax2ej44" d="M61.250000,39.690000C61.168606,40.207111,60.834836,40.649638,60.360000,40.870000C59.280000,41.380000,57.740000,41.310000,58.150000,42.870000C58.628363,44.104526,58.502598,45.491641,57.810000,46.620000C57.560000,46.990000,57.250000,47.310000,57.030000,47.700000C56.670000,48.300000,56.560000,49.030000,56.170000,49.610000C55.390000,50.760000,53.810000,51,52.430000,51C51.902094,50.988621,51.377610,51.087388,50.890000,51.290000C49.760000,51.850000,49.250000,53.510000,48,53.570000C46.750000,53.630000,46.320000,52,45.620000,51.200000C44.641326,50.214608,44.367381,48.729748,44.930000,47.460000C46.220000,44.820000,50.430000,44.980000,52.020000,42.460000C53,41,53,39,54.700000,38.060000C56.596474,37.177279,58.805475,37.281936,60.610000,38.340000C61.091067,38.605906,61.348658,39.149262,61.250000,39.690000Z" transform="translate(0,0)" fill="rgb(71,63,71)" stroke="none" stroke-width="1"/></g><g id="e1sdyd7ax2ej45_to" transform="translate(-9.376310,-14.585597)"><path id="e1sdyd7ax2ej45" d="M63.100000,58.450000C63.221425,58.548751,63.360581,58.623420,63.510000,58.670000C64.033509,58.798545,64.577265,58.822334,65.110000,58.740000C65.879481,58.700020,66.650519,58.700020,67.420000,58.740000C67.606926,58.730420,67.792189,58.779357,67.950000,58.880000C68.210000,59.100000,68.130000,59.510000,68.020000,59.830000C67.540689,61.285654,66.983212,62.714396,66.350000,64.110000C66.131275,64.719970,65.751094,65.259136,65.250000,65.670000C64.854183,65.915607,64.411367,66.075702,63.950000,66.140000C63.022662,66.330101,62.084058,66.460370,61.140000,66.530000C60.220764,66.664079,59.282351,66.539419,58.430000,66.170000C57.519612,65.621104,56.848628,64.750252,56.550000,63.730000C56.167065,62.746848,56.073379,61.674667,56.280000,60.640000C56.530000,59.540000,57.030000,59.220000,56.720000,58.040000C56.309577,56.576496,56.021914,55.081315,55.860000,53.570000C55.730003,52.198204,55.858906,50.814195,56.240000,49.490000C56.391377,48.876831,56.648566,48.294771,57,47.770000C57.358861,47.254713,57.885527,46.880039,58.490000,46.710000C59.099928,46.553066,59.747305,46.732047,60.190000,47.180000C61.360000,48.450000,62.960000,48.520000,64.290000,49.610000C64.367758,49.659917,64.427368,49.733553,64.460000,49.820000C64.494659,49.910116,64.494659,50.009884,64.460000,50.100000L63.590000,52.190000C63.504198,52.414966,63.393510,52.629633,63.260000,52.830000C63.140000,53,62.990000,53.140000,62.880000,53.310000C62.577997,53.821027,62.425544,54.406582,62.440000,55C62.430000,56,62.190000,57.740000,63.100000,58.450000Z" transform="translate(0,0)" fill="rgb(8,88,178)" stroke="none" stroke-width="1"/></g><g id="e1sdyd7ax2ej46_to" transform="translate(-9.376310,-14.585597)"><path id="e1sdyd7ax2ej46" d="M61.830000,59.790000C61.508195,59.947489,61.126726,59.920786,60.830000,59.720000C60.130000,59.200000,60.670000,58.840000,60.830000,58.300000C61.044201,57.553176,61.102073,56.770200,61,56C60.890000,54.510000,60.770000,53,60.660000,51.520000C60.720000,51.890000,62.480000,52.410000,63.170000,52.880000C63.050000,53.050000,62.900000,53.190000,62.790000,53.360000C62.010000,54.500000,62.420000,56.780000,62.440000,58.070000C62.490000,58.690000,62.410000,59.470000,61.830000,59.790000Z" transform="translate(0,0)" fill="url(#e1sdyd7ax2ej46-fill)" stroke="none" stroke-width="1"/></g><g id="e1sdyd7ax2ej47_to" transform="translate(-9.376310,-14.585597)"><path id="e1sdyd7ax2ej47" d="M69.940000,40.550000C70.237772,41.690890,70.237772,42.889110,69.940000,44.030000C69.886592,44.083899,69.821618,44.124935,69.750000,44.150000C69.694934,44.169049,69.635066,44.169049,69.580000,44.150000C69.130000,44.060000,66.580000,42.390000,63.580000,43.440000C63.164752,43.595313,62.696854,43.486163,62.393189,43.163145C62.089525,42.840126,62.009455,42.366384,62.190096,41.961511C62.370737,41.556639,62.776775,41.299781,63.220000,41.310000C63.663225,41.320219,67.150000,40,68,37.670000C68.110000,37.320000,68.330000,37.190000,68.580000,37.230000C68.737296,37.261224,68.884777,37.329819,69.010000,37.430000L69.010000,37.430000C69.511356,38.403105,69.826752,39.461209,69.940000,40.550000Z" transform="translate(0,0)" fill="rgb(8,88,178)" stroke="none" stroke-width="1"/></g><g id="e1sdyd7ax2ej48_to" transform="translate(-9.376310,-14.585597)"><path id="e1sdyd7ax2ej48" d="M69.940000,40.550000C70.237772,41.690890,70.237772,42.889110,69.940000,44.030000C69.911026,44.090869,69.855745,44.135094,69.790000,44.150000L69.790000,44.150000C69.390000,44.150000,68.790000,42.650000,68.510000,40.800000C68.230000,38.950000,68.250000,37.500000,68.580000,37.230000L68.660000,37.230000C68.770000,37.230000,68.880000,37.300000,69.010000,37.470000L69.010000,37.470000C69.506639,38.430793,69.821907,39.474906,69.940000,40.550000Z" transform="translate(0,0)" fill="url(#e1sdyd7ax2ej48-fill)" stroke="none" stroke-width="1"/></g><g id="e1sdyd7ax2ej49_to" transform="translate(-9.376310,-14.585597)"><path id="e1sdyd7ax2ej49" d="M75.770000,69.380000C75.488804,69.462048,75.312922,69.740886,75.360000,70.030000C75.360000,70.190000,75.550000,70.350000,75.480000,70.500000C75.430866,70.583080,75.345838,70.638533,75.250000,70.650000C74.312058,70.937019,73.301350,70.869402,72.410000,70.460000C72.365501,70.620663,72.411412,70.792827,72.530000,70.910000C72.666941,71.163639,72.871065,71.374683,73.120000,71.520000C73.286032,71.583907,73.462108,71.617767,73.640000,71.620000C75.035738,71.601610,76.390065,71.143168,77.510000,70.310000C77.616733,70.243012,77.711395,70.158492,77.790000,70.060000C77.858741,69.949844,77.858741,69.810156,77.790000,69.700000C77.730000,69.550000,77.550000,69.500000,77.390000,69.470000C77.111602,69.428575,76.831212,69.401871,76.550000,69.390000C76.293359,69.333890,76.027995,69.330487,75.770000,69.380000Z" transform="translate(0,0)" fill="rgb(8,88,178)" stroke="none" stroke-width="1"/></g></svg>